<?xml version="1.0" encoding="utf-8"?>
<!-- Generator: Adobe Illustrator 23.1.1, SVG Export Plug-In . SVG Version: 6.00 Build 0)  -->
<svg version="1.1" id="Camada_1" xmlns="http://www.w3.org/2000/svg" xmlns:xlink="http://www.w3.org/1999/xlink" x="0px" y="0px"
	viewBox="0 0 586.3 395.6" style="enable-background:new 0 0 586.3 395.6;" xml:space="preserve">
<style type="text/css">
	.st0{fill:#D6D6D6;}
	.st1{fill:#EC6508;stroke:#EC6508;stroke-miterlimit:10;}
</style>
<path class="st0" d="M466.3,99.1H126c-3.1,0-5.5-2.5-5.5-5.5V56.1c0-3.1,2.5-5.5,5.5-5.5h340.2c3.1,0,5.5,2.5,5.5,5.5v37.4
	C471.8,96.6,469.3,99.1,466.3,99.1z"/>
<path class="st0" d="M486,307.2H105.8c-8,0-14.5-6.5-14.5-14.5v-261c0-8,6.5-14.5,14.5-14.5H486c8,0,14.5,6.5,14.5,14.5v261
	C500.5,300.7,493.9,307.2,486,307.2z M105.8,22.2c-5.2,0-9.5,4.3-9.5,9.5v261c0,5.2,4.3,9.5,9.5,9.5H486c5.2,0,9.5-4.3,9.5-9.5v-261
	c0-5.2-4.3-9.5-9.5-9.5H105.8z"/>
<g>
	<path class="st0" d="M384.2,122.7v59.5c0,5.7-4.6,10.2-10.2,10.2h-58.7c-5.7,0-10.2-4.6-10.2-10.2v-59.5c0-5.7,4.6-10.2,10.2-10.2
		h58.7C379.6,112.5,384.2,117.1,384.2,122.7z"/>
	<path class="st1" d="M384.2,212.3v59.5c0,5.7-4.6,10.2-10.2,10.2h-58.7c-5.7,0-10.2-4.6-10.2-10.2v-59.5c0-5.7,4.6-10.2,10.2-10.2
		h58.7C379.6,202.1,384.2,206.6,384.2,212.3z"/>
	<path class="st0" d="M294.4,122.7v59.5c0,5.7-4.6,10.2-10.2,10.2h-58.7c-5.7,0-10.2-4.6-10.2-10.2v-59.5c0-5.7,4.6-10.2,10.2-10.2
		h58.7C289.8,112.5,294.4,117.1,294.4,122.7z"/>
	<path class="st0" d="M294.4,212.3v59.5c0,5.7-4.6,10.2-10.2,10.2h-58.7c-5.7,0-10.2-4.6-10.2-10.2v-59.5c0-5.7,4.6-10.2,10.2-10.2
		h58.7C289.8,202.1,294.4,206.6,294.4,212.3z"/>
	<g>
		<path class="st0" d="M357.7,263.9L357.7,263.9c-3.2-3.2-8.4-3.2-11.6,0l-1.6,1.6c-3.2,3.2-3.2,8.4,0,11.6h0
			c1.5,1.5,2.4,3.6,2.4,5.7l0,2.1c0,2.1,0.9,4.2,2.4,5.7l46.2,46.2c3.2,3.2,8.4,3.2,11.6,0l10.3-10.3c3.2-3.2,3.2-8.4,0-11.6
			l-46.2-46.2c-1.5-1.5-3.6-2.4-5.7-2.4l-2.1,0C361.3,266.3,359.2,265.4,357.7,263.9z"/>
		<path class="st1" d="M467.6,375.1l-12.8,12.8c-4,4-10.5,4-14.5,0l-47.1-47.1l27.3-27.3l47.1,47.1
			C471.6,364.6,471.6,371.1,467.6,375.1z"/>
		
			<rect x="375.2" y="316.3" transform="matrix(0.7071 -0.7071 0.7071 0.7071 -110.7218 379.1192)" class="st1" width="54.1" height="13.9"/>
	</g>
</g>
<path class="st0" d="M196.3,279.7H130c-4.3,0-7.8-3.5-7.8-7.8V121.1c0-4.3,3.5-7.8,7.8-7.8h66.3c4.3,0,7.8,3.5,7.8,7.8v150.8
	C204.1,276.2,200.6,279.7,196.3,279.7z"/>
<path class="st0" d="M467.8,279.7h-66.3c-4.3,0-7.8-3.5-7.8-7.8V121.1c0-4.3,3.5-7.8,7.8-7.8h66.3c4.3,0,7.8,3.5,7.8,7.8v150.8
	C475.6,276.2,472.1,279.7,467.8,279.7z"/>
</svg>
